<mxfile host="app.diagrams.net" agent="Mozilla/5.0 (Macintosh; Intel Mac OS X 10_15_7) AppleWebKit/537.36 (KHTML, like Gecko) Chrome/126.0.0.0 Safari/537.36" version="24.7.6">
  <diagram name="第 1 页" id="n1DuArCWgtE5LmtFwak6">
    <mxGraphModel dx="711" dy="397" grid="1" gridSize="10" guides="1" tooltips="1" connect="1" arrows="1" fold="1" page="1" pageScale="1" pageWidth="827" pageHeight="1169" math="1" shadow="0">
      <root>
        <mxCell id="0" />
        <mxCell id="1" parent="0" />
        <mxCell id="bn8aiFJUqsX345VFE5YM-136" value="" style="edgeStyle=orthogonalEdgeStyle;orthogonalLoop=1;jettySize=auto;html=1;rounded=0;endArrow=none;endFill=0;curved=1;targetPerimeterSpacing=-1;" edge="1" parent="1">
          <mxGeometry width="80" relative="1" as="geometry">
            <mxPoint x="524" y="270" as="sourcePoint" />
            <mxPoint x="464" y="330" as="targetPoint" />
            <Array as="points">
              <mxPoint x="524" y="260" />
              <mxPoint x="444" y="260" />
              <mxPoint x="444" y="330" />
            </Array>
          </mxGeometry>
        </mxCell>
        <mxCell id="bn8aiFJUqsX345VFE5YM-133" value="" style="edgeStyle=orthogonalEdgeStyle;orthogonalLoop=1;jettySize=auto;html=1;rounded=0;endArrow=none;endFill=0;curved=1;targetPerimeterSpacing=-1;" edge="1" parent="1">
          <mxGeometry width="80" relative="1" as="geometry">
            <mxPoint x="482" y="310" as="sourcePoint" />
            <mxPoint x="422" y="370" as="targetPoint" />
            <Array as="points">
              <mxPoint x="482" y="300" />
              <mxPoint x="402" y="300" />
              <mxPoint x="402" y="370" />
            </Array>
          </mxGeometry>
        </mxCell>
        <mxCell id="bn8aiFJUqsX345VFE5YM-119" value="" style="group" vertex="1" connectable="0" parent="1">
          <mxGeometry x="520" y="234" width="40" height="46" as="geometry" />
        </mxCell>
        <mxCell id="bn8aiFJUqsX345VFE5YM-120" value="$$S^z$$" style="text;html=1;align=center;verticalAlign=middle;whiteSpace=wrap;rounded=0;fontStyle=0" vertex="1" parent="bn8aiFJUqsX345VFE5YM-119">
          <mxGeometry y="26" width="30" height="20" as="geometry" />
        </mxCell>
        <mxCell id="bn8aiFJUqsX345VFE5YM-121" value="" style="group" vertex="1" connectable="0" parent="1">
          <mxGeometry x="464" y="294" width="40" height="46" as="geometry" />
        </mxCell>
        <mxCell id="bn8aiFJUqsX345VFE5YM-122" value="$$S^z$$" style="text;html=1;align=center;verticalAlign=middle;whiteSpace=wrap;rounded=0;fontStyle=0" vertex="1" parent="bn8aiFJUqsX345VFE5YM-121">
          <mxGeometry y="26" width="30" height="20" as="geometry" />
        </mxCell>
        <mxCell id="bn8aiFJUqsX345VFE5YM-106" value="" style="group" vertex="1" connectable="0" parent="1">
          <mxGeometry x="499" y="254" width="40" height="46" as="geometry" />
        </mxCell>
        <mxCell id="bn8aiFJUqsX345VFE5YM-107" value="$$S^z$$" style="text;html=1;align=center;verticalAlign=middle;whiteSpace=wrap;rounded=0;fontStyle=0" vertex="1" parent="bn8aiFJUqsX345VFE5YM-106">
          <mxGeometry y="26" width="30" height="20" as="geometry" />
        </mxCell>
        <mxCell id="bn8aiFJUqsX345VFE5YM-112" value="" style="group" vertex="1" connectable="0" parent="1">
          <mxGeometry x="429" y="258" width="70" height="122" as="geometry" />
        </mxCell>
        <mxCell id="bn8aiFJUqsX345VFE5YM-113" value="$$S^z$$" style="text;html=1;align=center;verticalAlign=middle;whiteSpace=wrap;rounded=0;fontStyle=0" vertex="1" parent="bn8aiFJUqsX345VFE5YM-112">
          <mxGeometry y="68.95652173913042" width="52.5" height="53.043478260869556" as="geometry" />
        </mxCell>
        <mxCell id="bn8aiFJUqsX345VFE5YM-135" value="" style="edgeStyle=orthogonalEdgeStyle;orthogonalLoop=1;jettySize=auto;html=1;rounded=0;endArrow=none;endFill=0;curved=1;targetPerimeterSpacing=-1;" edge="1" parent="bn8aiFJUqsX345VFE5YM-112">
          <mxGeometry width="80" relative="1" as="geometry">
            <mxPoint x="71" y="32" as="sourcePoint" />
            <mxPoint x="11" y="92" as="targetPoint" />
            <Array as="points">
              <mxPoint x="71" y="22" />
              <mxPoint x="-9" y="22" />
              <mxPoint x="-9" y="92" />
            </Array>
          </mxGeometry>
        </mxCell>
        <mxCell id="bn8aiFJUqsX345VFE5YM-108" value="" style="group" vertex="1" connectable="0" parent="1">
          <mxGeometry x="480" y="277" width="40" height="46" as="geometry" />
        </mxCell>
        <mxCell id="bn8aiFJUqsX345VFE5YM-109" value="$$S^z$$" style="text;html=1;align=center;verticalAlign=middle;whiteSpace=wrap;rounded=0;fontStyle=0" vertex="1" parent="bn8aiFJUqsX345VFE5YM-108">
          <mxGeometry y="26" width="30" height="20" as="geometry" />
        </mxCell>
        <mxCell id="bn8aiFJUqsX345VFE5YM-110" value="" style="group" vertex="1" connectable="0" parent="1">
          <mxGeometry x="420" y="334" width="40" height="46" as="geometry" />
        </mxCell>
        <mxCell id="bn8aiFJUqsX345VFE5YM-111" value="$$S^z$$" style="text;html=1;align=center;verticalAlign=middle;whiteSpace=wrap;rounded=0;fontStyle=0" vertex="1" parent="bn8aiFJUqsX345VFE5YM-110">
          <mxGeometry y="26" width="30" height="20" as="geometry" />
        </mxCell>
        <mxCell id="bn8aiFJUqsX345VFE5YM-95" value="" style="group" vertex="1" connectable="0" parent="1">
          <mxGeometry x="480" y="434" width="40" height="46" as="geometry" />
        </mxCell>
        <mxCell id="bn8aiFJUqsX345VFE5YM-96" value="$$S^z$$" style="text;html=1;align=center;verticalAlign=middle;whiteSpace=wrap;rounded=0;fontStyle=0" vertex="1" parent="bn8aiFJUqsX345VFE5YM-95">
          <mxGeometry y="26" width="30" height="20" as="geometry" />
        </mxCell>
        <mxCell id="bn8aiFJUqsX345VFE5YM-97" value="$$S^z$$" style="text;html=1;align=center;verticalAlign=middle;whiteSpace=wrap;rounded=0;fontStyle=0" vertex="1" parent="bn8aiFJUqsX345VFE5YM-95">
          <mxGeometry x="15" y="10" width="30" height="20" as="geometry" />
        </mxCell>
        <mxCell id="bn8aiFJUqsX345VFE5YM-89" value="" style="group" vertex="1" connectable="0" parent="1">
          <mxGeometry x="450" y="454" width="40" height="46" as="geometry" />
        </mxCell>
        <mxCell id="bn8aiFJUqsX345VFE5YM-90" value="$$S^z$$" style="text;html=1;align=center;verticalAlign=middle;whiteSpace=wrap;rounded=0;fontStyle=0" vertex="1" parent="bn8aiFJUqsX345VFE5YM-89">
          <mxGeometry y="26" width="30" height="20" as="geometry" />
        </mxCell>
        <mxCell id="bn8aiFJUqsX345VFE5YM-91" value="$$S^z$$" style="text;html=1;align=center;verticalAlign=middle;whiteSpace=wrap;rounded=0;fontStyle=0" vertex="1" parent="bn8aiFJUqsX345VFE5YM-89">
          <mxGeometry x="15" y="10" width="30" height="20" as="geometry" />
        </mxCell>
        <mxCell id="bn8aiFJUqsX345VFE5YM-92" value="" style="group" vertex="1" connectable="0" parent="1">
          <mxGeometry x="420" y="474" width="40" height="46" as="geometry" />
        </mxCell>
        <mxCell id="bn8aiFJUqsX345VFE5YM-93" value="$$S^z$$" style="text;html=1;align=center;verticalAlign=middle;whiteSpace=wrap;rounded=0;fontStyle=0" vertex="1" parent="bn8aiFJUqsX345VFE5YM-92">
          <mxGeometry y="26" width="30" height="20" as="geometry" />
        </mxCell>
        <mxCell id="bn8aiFJUqsX345VFE5YM-94" value="$$S^z$$" style="text;html=1;align=center;verticalAlign=middle;whiteSpace=wrap;rounded=0;fontStyle=0" vertex="1" parent="bn8aiFJUqsX345VFE5YM-92">
          <mxGeometry x="15" y="10" width="30" height="20" as="geometry" />
        </mxCell>
        <mxCell id="bn8aiFJUqsX345VFE5YM-72" value="$$S^zS^z$$" style="text;html=1;align=center;verticalAlign=middle;whiteSpace=wrap;rounded=0;fontStyle=0" vertex="1" parent="1">
          <mxGeometry x="250" y="280" width="60" height="20" as="geometry" />
        </mxCell>
        <mxCell id="bn8aiFJUqsX345VFE5YM-46" value="" style="group" vertex="1" connectable="0" parent="1">
          <mxGeometry x="160" y="440" width="200" height="80" as="geometry" />
        </mxCell>
        <mxCell id="bn8aiFJUqsX345VFE5YM-33" value="$$S^zS^z$$" style="text;html=1;align=center;verticalAlign=middle;whiteSpace=wrap;rounded=0;fontStyle=0" vertex="1" parent="bn8aiFJUqsX345VFE5YM-46">
          <mxGeometry x="10" y="60" width="60" height="20" as="geometry" />
        </mxCell>
        <mxCell id="bn8aiFJUqsX345VFE5YM-29" value="" style="shape=parallelogram;perimeter=parallelogramPerimeter;whiteSpace=wrap;html=1;fixedSize=1;size=80;opacity=50;fillColor=#f5f5f5;fontColor=#333333;strokeColor=#666666;" vertex="1" parent="bn8aiFJUqsX345VFE5YM-46">
          <mxGeometry width="200" height="80" as="geometry" />
        </mxCell>
        <mxCell id="bn8aiFJUqsX345VFE5YM-42" value="" style="group" vertex="1" connectable="0" parent="bn8aiFJUqsX345VFE5YM-46">
          <mxGeometry y="-20" width="200" height="80" as="geometry" />
        </mxCell>
        <mxCell id="bn8aiFJUqsX345VFE5YM-35" value="$$S^zS^z$$" style="text;html=1;align=center;verticalAlign=middle;whiteSpace=wrap;rounded=0;fontStyle=0" vertex="1" parent="bn8aiFJUqsX345VFE5YM-42">
          <mxGeometry x="40" y="60" width="60" height="20" as="geometry" />
        </mxCell>
        <mxCell id="bn8aiFJUqsX345VFE5YM-31" value="" style="shape=parallelogram;perimeter=parallelogramPerimeter;whiteSpace=wrap;html=1;fixedSize=1;size=80;opacity=50;fillColor=#f5f5f5;fontColor=#333333;strokeColor=#666666;" vertex="1" parent="bn8aiFJUqsX345VFE5YM-42">
          <mxGeometry width="200" height="80" as="geometry" />
        </mxCell>
        <mxCell id="bn8aiFJUqsX345VFE5YM-43" value="" style="group" vertex="1" connectable="0" parent="bn8aiFJUqsX345VFE5YM-42">
          <mxGeometry y="-20" width="200" height="80" as="geometry" />
        </mxCell>
        <mxCell id="bn8aiFJUqsX345VFE5YM-34" value="$$S^zS^z$$" style="text;html=1;align=center;verticalAlign=middle;whiteSpace=wrap;rounded=0;fontStyle=0" vertex="1" parent="bn8aiFJUqsX345VFE5YM-43">
          <mxGeometry x="70" y="60" width="60" height="20" as="geometry" />
        </mxCell>
        <mxCell id="bn8aiFJUqsX345VFE5YM-30" value="" style="shape=parallelogram;perimeter=parallelogramPerimeter;whiteSpace=wrap;html=1;fixedSize=1;size=80;opacity=50;fillColor=#f5f5f5;fontColor=#333333;strokeColor=#666666;" vertex="1" parent="bn8aiFJUqsX345VFE5YM-43">
          <mxGeometry width="200" height="80" as="geometry" />
        </mxCell>
        <mxCell id="bn8aiFJUqsX345VFE5YM-40" value="" style="group" vertex="1" connectable="0" parent="1">
          <mxGeometry x="160" y="380" width="200" height="80" as="geometry" />
        </mxCell>
        <mxCell id="bn8aiFJUqsX345VFE5YM-37" value="" style="shape=parallelogram;perimeter=parallelogramPerimeter;whiteSpace=wrap;html=1;fixedSize=1;size=80;opacity=50;fillColor=#f5f5f5;fontColor=#333333;strokeColor=#666666;" vertex="1" parent="bn8aiFJUqsX345VFE5YM-40">
          <mxGeometry width="200" height="80" as="geometry" />
        </mxCell>
        <mxCell id="bn8aiFJUqsX345VFE5YM-39" value="$$S^z$$" style="text;html=1;align=center;verticalAlign=middle;whiteSpace=wrap;rounded=0;fontStyle=0" vertex="1" parent="bn8aiFJUqsX345VFE5YM-40">
          <mxGeometry x="10" y="60" width="60" height="20" as="geometry" />
        </mxCell>
        <mxCell id="bn8aiFJUqsX345VFE5YM-38" value="$$S^z$$" style="text;html=1;align=center;verticalAlign=middle;whiteSpace=wrap;rounded=0;fontStyle=0" vertex="1" parent="bn8aiFJUqsX345VFE5YM-40">
          <mxGeometry x="90" y="60" width="60" height="20" as="geometry" />
        </mxCell>
        <mxCell id="bn8aiFJUqsX345VFE5YM-51" value="" style="edgeStyle=orthogonalEdgeStyle;orthogonalLoop=1;jettySize=auto;html=1;rounded=0;endArrow=none;endFill=0;curved=1;" edge="1" parent="bn8aiFJUqsX345VFE5YM-40">
          <mxGeometry width="80" relative="1" as="geometry">
            <mxPoint x="28.03" y="70" as="sourcePoint" />
            <mxPoint x="130.03" y="70" as="targetPoint" />
            <Array as="points">
              <mxPoint x="9.999999999999998" y="70" />
              <mxPoint x="9.999999999999998" y="40" />
              <mxPoint x="150.00000000000003" y="40" />
              <mxPoint x="150.00000000000003" y="70" />
            </Array>
          </mxGeometry>
        </mxCell>
        <mxCell id="bn8aiFJUqsX345VFE5YM-53" value="" style="endArrow=none;dashed=1;html=1;rounded=0;dashPattern=1 4;" edge="1" parent="bn8aiFJUqsX345VFE5YM-40">
          <mxGeometry width="50" height="50" relative="1" as="geometry">
            <mxPoint x="90" y="25" as="sourcePoint" />
            <mxPoint x="90" y="-20" as="targetPoint" />
          </mxGeometry>
        </mxCell>
        <mxCell id="bn8aiFJUqsX345VFE5YM-52" value="PBC" style="text;html=1;align=center;verticalAlign=middle;whiteSpace=wrap;rounded=0;" vertex="1" parent="1">
          <mxGeometry x="120" y="420" width="40" height="30" as="geometry" />
        </mxCell>
        <mxCell id="bn8aiFJUqsX345VFE5YM-70" value="$$S^zS^z$$" style="text;html=1;align=center;verticalAlign=middle;whiteSpace=wrap;rounded=0;fontStyle=0" vertex="1" parent="1">
          <mxGeometry x="230" y="300" width="60" height="20" as="geometry" />
        </mxCell>
        <mxCell id="bn8aiFJUqsX345VFE5YM-69" value="PBC" style="text;html=1;align=center;verticalAlign=middle;whiteSpace=wrap;rounded=0;" vertex="1" parent="1">
          <mxGeometry x="170" y="220" width="40" height="30" as="geometry" />
        </mxCell>
        <mxCell id="bn8aiFJUqsX345VFE5YM-62" value="" style="shape=parallelogram;perimeter=parallelogramPerimeter;whiteSpace=wrap;html=1;fixedSize=1;size=80;opacity=50;fillColor=#f5f5f5;fontColor=#333333;strokeColor=#666666;" vertex="1" parent="1">
          <mxGeometry x="160" y="300" width="200" height="80" as="geometry" />
        </mxCell>
        <mxCell id="bn8aiFJUqsX345VFE5YM-59" value="" style="shape=parallelogram;perimeter=parallelogramPerimeter;whiteSpace=wrap;html=1;fixedSize=1;size=80;opacity=50;fillColor=#f5f5f5;fontColor=#333333;strokeColor=#666666;" vertex="1" parent="1">
          <mxGeometry x="160" y="280" width="200" height="80" as="geometry" />
        </mxCell>
        <mxCell id="bn8aiFJUqsX345VFE5YM-32" value="" style="shape=parallelogram;perimeter=parallelogramPerimeter;whiteSpace=wrap;html=1;fixedSize=1;size=80;opacity=50;fillColor=#f5f5f5;fontColor=#333333;strokeColor=#666666;" vertex="1" parent="1">
          <mxGeometry x="160" y="260" width="200" height="80" as="geometry" />
        </mxCell>
        <mxCell id="bn8aiFJUqsX345VFE5YM-73" value="$$S^zS^z$$" style="text;html=1;align=center;verticalAlign=middle;whiteSpace=wrap;rounded=0;fontStyle=0" vertex="1" parent="1">
          <mxGeometry x="274" y="260" width="60" height="20" as="geometry" />
        </mxCell>
        <mxCell id="bn8aiFJUqsX345VFE5YM-56" value="" style="shape=parallelogram;perimeter=parallelogramPerimeter;whiteSpace=wrap;html=1;fixedSize=1;size=80;opacity=50;fillColor=#f5f5f5;fontColor=#333333;strokeColor=#666666;" vertex="1" parent="1">
          <mxGeometry x="160" y="240" width="200" height="80" as="geometry" />
        </mxCell>
        <mxCell id="bn8aiFJUqsX345VFE5YM-64" value="" style="shape=parallelogram;perimeter=parallelogramPerimeter;whiteSpace=wrap;html=1;fixedSize=1;size=80;opacity=50;fillColor=#f5f5f5;fontColor=#333333;strokeColor=#666666;" vertex="1" parent="1">
          <mxGeometry x="402" y="440" width="200" height="80" as="geometry" />
        </mxCell>
        <mxCell id="bn8aiFJUqsX345VFE5YM-65" value="$$S^z$$" style="text;html=1;align=center;verticalAlign=middle;whiteSpace=wrap;rounded=0;fontStyle=0" vertex="1" parent="1">
          <mxGeometry x="219.97" y="240" width="60" height="20" as="geometry" />
        </mxCell>
        <mxCell id="bn8aiFJUqsX345VFE5YM-66" value="$$S^z$$" style="text;html=1;align=center;verticalAlign=middle;whiteSpace=wrap;rounded=0;fontStyle=0" vertex="1" parent="1">
          <mxGeometry x="299.97" y="240" width="60" height="20" as="geometry" />
        </mxCell>
        <mxCell id="bn8aiFJUqsX345VFE5YM-67" value="" style="edgeStyle=orthogonalEdgeStyle;orthogonalLoop=1;jettySize=auto;html=1;rounded=0;endArrow=none;endFill=0;curved=1;" edge="1" parent="1">
          <mxGeometry width="80" relative="1" as="geometry">
            <mxPoint x="237.99999999999997" y="250" as="sourcePoint" />
            <mxPoint x="340" y="250" as="targetPoint" />
            <Array as="points">
              <mxPoint x="219.97" y="250" />
              <mxPoint x="219.97" y="220" />
              <mxPoint x="359.97" y="220" />
              <mxPoint x="359.97" y="250" />
            </Array>
          </mxGeometry>
        </mxCell>
        <mxCell id="bn8aiFJUqsX345VFE5YM-74" value="" style="shape=parallelogram;perimeter=parallelogramPerimeter;whiteSpace=wrap;html=1;fixedSize=1;size=80;opacity=50;fillColor=#f5f5f5;fontColor=#333333;strokeColor=#666666;" vertex="1" parent="1">
          <mxGeometry x="402" y="420" width="200" height="80" as="geometry" />
        </mxCell>
        <mxCell id="bn8aiFJUqsX345VFE5YM-75" value="" style="shape=parallelogram;perimeter=parallelogramPerimeter;whiteSpace=wrap;html=1;fixedSize=1;size=80;opacity=50;fillColor=#f5f5f5;fontColor=#333333;strokeColor=#666666;" vertex="1" parent="1">
          <mxGeometry x="402" y="400" width="200" height="80" as="geometry" />
        </mxCell>
        <mxCell id="bn8aiFJUqsX345VFE5YM-76" value="" style="shape=parallelogram;perimeter=parallelogramPerimeter;whiteSpace=wrap;html=1;fixedSize=1;size=80;opacity=50;fillColor=#f5f5f5;fontColor=#333333;strokeColor=#666666;" vertex="1" parent="1">
          <mxGeometry x="402" y="380" width="200" height="80" as="geometry" />
        </mxCell>
        <mxCell id="bn8aiFJUqsX345VFE5YM-80" value="" style="endArrow=none;dashed=1;html=1;dashPattern=1 4;strokeWidth=1;rounded=0;" edge="1" parent="1">
          <mxGeometry width="50" height="50" relative="1" as="geometry">
            <mxPoint x="499.62" y="400" as="sourcePoint" />
            <mxPoint x="499.62" y="360" as="targetPoint" />
          </mxGeometry>
        </mxCell>
        <mxCell id="bn8aiFJUqsX345VFE5YM-81" value="" style="shape=parallelogram;perimeter=parallelogramPerimeter;whiteSpace=wrap;html=1;fixedSize=1;size=80;opacity=50;fillColor=#f5f5f5;fontColor=#333333;strokeColor=#666666;" vertex="1" parent="1">
          <mxGeometry x="400" y="300" width="200" height="80" as="geometry" />
        </mxCell>
        <mxCell id="bn8aiFJUqsX345VFE5YM-82" value="" style="shape=parallelogram;perimeter=parallelogramPerimeter;whiteSpace=wrap;html=1;fixedSize=1;size=80;opacity=50;fillColor=#f5f5f5;fontColor=#333333;strokeColor=#666666;" vertex="1" parent="1">
          <mxGeometry x="400" y="280" width="200" height="80" as="geometry" />
        </mxCell>
        <mxCell id="bn8aiFJUqsX345VFE5YM-83" value="" style="shape=parallelogram;perimeter=parallelogramPerimeter;whiteSpace=wrap;html=1;fixedSize=1;size=80;opacity=50;fillColor=#f5f5f5;fontColor=#333333;strokeColor=#666666;" vertex="1" parent="1">
          <mxGeometry x="400" y="260" width="200" height="80" as="geometry" />
        </mxCell>
        <mxCell id="bn8aiFJUqsX345VFE5YM-84" value="" style="shape=parallelogram;perimeter=parallelogramPerimeter;whiteSpace=wrap;html=1;fixedSize=1;size=80;opacity=50;fillColor=#f5f5f5;fontColor=#333333;strokeColor=#666666;" vertex="1" parent="1">
          <mxGeometry x="400" y="240" width="200" height="80" as="geometry" />
        </mxCell>
        <mxCell id="bn8aiFJUqsX345VFE5YM-98" value="" style="group" vertex="1" connectable="0" parent="1">
          <mxGeometry x="504" y="414" width="40" height="46" as="geometry" />
        </mxCell>
        <mxCell id="bn8aiFJUqsX345VFE5YM-99" value="$$S^z$$" style="text;html=1;align=center;verticalAlign=middle;whiteSpace=wrap;rounded=0;fontStyle=0" vertex="1" parent="bn8aiFJUqsX345VFE5YM-98">
          <mxGeometry y="26" width="30" height="20" as="geometry" />
        </mxCell>
        <mxCell id="bn8aiFJUqsX345VFE5YM-100" value="$$S^z$$" style="text;html=1;align=center;verticalAlign=middle;whiteSpace=wrap;rounded=0;fontStyle=0" vertex="1" parent="bn8aiFJUqsX345VFE5YM-98">
          <mxGeometry x="15" y="10" width="30" height="20" as="geometry" />
        </mxCell>
        <mxCell id="bn8aiFJUqsX345VFE5YM-117" value="" style="group" vertex="1" connectable="0" parent="1">
          <mxGeometry x="560" y="214" width="40" height="46" as="geometry" />
        </mxCell>
        <mxCell id="bn8aiFJUqsX345VFE5YM-118" value="$$S^z$$" style="text;html=1;align=center;verticalAlign=middle;whiteSpace=wrap;rounded=0;fontStyle=0" vertex="1" parent="bn8aiFJUqsX345VFE5YM-117">
          <mxGeometry y="26" width="30" height="20" as="geometry" />
        </mxCell>
        <mxCell id="bn8aiFJUqsX345VFE5YM-123" value="" style="group" vertex="1" connectable="0" parent="1">
          <mxGeometry x="499" y="274" width="40" height="46" as="geometry" />
        </mxCell>
        <mxCell id="bn8aiFJUqsX345VFE5YM-124" value="$$S^z$$" style="text;html=1;align=center;verticalAlign=middle;whiteSpace=wrap;rounded=0;fontStyle=0" vertex="1" parent="bn8aiFJUqsX345VFE5YM-123">
          <mxGeometry y="26" width="30" height="20" as="geometry" />
        </mxCell>
        <mxCell id="bn8aiFJUqsX345VFE5YM-137" value="" style="edgeStyle=orthogonalEdgeStyle;orthogonalLoop=1;jettySize=auto;html=1;rounded=0;endArrow=none;endFill=0;curved=1;targetPerimeterSpacing=-1;" edge="1" parent="1">
          <mxGeometry width="80" relative="1" as="geometry">
            <mxPoint x="564" y="245" as="sourcePoint" />
            <mxPoint x="504" y="305" as="targetPoint" />
            <Array as="points">
              <mxPoint x="564" y="235" />
              <mxPoint x="484" y="235" />
              <mxPoint x="484" y="305" />
            </Array>
          </mxGeometry>
        </mxCell>
        <mxCell id="bn8aiFJUqsX345VFE5YM-138" value="PBC" style="text;html=1;align=center;verticalAlign=middle;whiteSpace=wrap;rounded=0;" vertex="1" parent="1">
          <mxGeometry x="482" y="204" width="40" height="30" as="geometry" />
        </mxCell>
      </root>
    </mxGraphModel>
  </diagram>
</mxfile>
